<mxfile host="app.diagrams.net" agent="Mozilla/5.0 (Windows NT 10.0; Win64; x64) AppleWebKit/537.36 (KHTML, like Gecko) Chrome/138.0.0.0 Safari/537.36" version="28.0.6">
  <diagram name="Page-1" id="lxaqdxnQPlQg8r7tQkkB">
    <mxGraphModel dx="786" dy="451" grid="1" gridSize="10" guides="1" tooltips="1" connect="1" arrows="1" fold="1" page="1" pageScale="1" pageWidth="850" pageHeight="1100" math="0" shadow="0">
      <root>
        <mxCell id="0" />
        <mxCell id="1" parent="0" />
        <mxCell id="fR26k21ir-IYqYU8golR-1" value="" style="strokeWidth=2;html=1;shape=mxgraph.flowchart.terminator;whiteSpace=wrap;" parent="1" vertex="1">
          <mxGeometry x="350" y="10" width="100" height="60" as="geometry" />
        </mxCell>
        <mxCell id="fR26k21ir-IYqYU8golR-2" value="Mulai" style="text;html=1;align=center;verticalAlign=middle;whiteSpace=wrap;rounded=0;" parent="1" vertex="1">
          <mxGeometry x="370" y="25" width="60" height="30" as="geometry" />
        </mxCell>
        <mxCell id="fR26k21ir-IYqYU8golR-3" value="" style="endArrow=classic;html=1;rounded=0;exitX=0.5;exitY=1;exitDx=0;exitDy=0;exitPerimeter=0;" parent="1" source="fR26k21ir-IYqYU8golR-1" edge="1">
          <mxGeometry width="50" height="50" relative="1" as="geometry">
            <mxPoint x="380" y="260" as="sourcePoint" />
            <mxPoint x="400" y="120" as="targetPoint" />
          </mxGeometry>
        </mxCell>
        <mxCell id="fR26k21ir-IYqYU8golR-5" value="" style="shape=parallelogram;perimeter=parallelogramPerimeter;whiteSpace=wrap;html=1;fixedSize=1;" parent="1" vertex="1">
          <mxGeometry x="340" y="120" width="120" height="60" as="geometry" />
        </mxCell>
        <mxCell id="fR26k21ir-IYqYU8golR-6" value="input score" style="text;html=1;align=center;verticalAlign=middle;whiteSpace=wrap;rounded=0;" parent="1" vertex="1">
          <mxGeometry x="370" y="135" width="60" height="30" as="geometry" />
        </mxCell>
        <mxCell id="fR26k21ir-IYqYU8golR-7" value="" style="endArrow=classic;html=1;rounded=0;exitX=0.5;exitY=1;exitDx=0;exitDy=0;" parent="1" source="fR26k21ir-IYqYU8golR-5" edge="1">
          <mxGeometry width="50" height="50" relative="1" as="geometry">
            <mxPoint x="380" y="210" as="sourcePoint" />
            <mxPoint x="400" y="240" as="targetPoint" />
          </mxGeometry>
        </mxCell>
        <mxCell id="fR26k21ir-IYqYU8golR-11" value="" style="endArrow=classic;html=1;rounded=0;exitX=0.5;exitY=1;exitDx=0;exitDy=0;entryX=0.5;entryY=0;entryDx=0;entryDy=0;" parent="1" source="r1bz6jaTydQUi2TKYvOO-1" edge="1" target="fR26k21ir-IYqYU8golR-15">
          <mxGeometry width="50" height="50" relative="1" as="geometry">
            <mxPoint x="400" y="300" as="sourcePoint" />
            <mxPoint x="400" y="400" as="targetPoint" />
          </mxGeometry>
        </mxCell>
        <mxCell id="fR26k21ir-IYqYU8golR-12" value="No" style="text;html=1;align=center;verticalAlign=middle;whiteSpace=wrap;rounded=0;" parent="1" vertex="1">
          <mxGeometry x="320" y="390" width="120" height="30" as="geometry" />
        </mxCell>
        <mxCell id="fR26k21ir-IYqYU8golR-15" value="" style="shape=parallelogram;perimeter=parallelogramPerimeter;whiteSpace=wrap;html=1;fixedSize=1;" parent="1" vertex="1">
          <mxGeometry x="340" y="450" width="120" height="60" as="geometry" />
        </mxCell>
        <mxCell id="fR26k21ir-IYqYU8golR-17" value="" style="endArrow=classic;html=1;rounded=0;exitX=0.5;exitY=1;exitDx=0;exitDy=0;" parent="1" source="fR26k21ir-IYqYU8golR-15" edge="1">
          <mxGeometry width="50" height="50" relative="1" as="geometry">
            <mxPoint x="380" y="440" as="sourcePoint" />
            <mxPoint x="400" y="610" as="targetPoint" />
          </mxGeometry>
        </mxCell>
        <mxCell id="fR26k21ir-IYqYU8golR-18" value="" style="strokeWidth=2;html=1;shape=mxgraph.flowchart.terminator;whiteSpace=wrap;" parent="1" vertex="1">
          <mxGeometry x="350" y="610" width="100" height="60" as="geometry" />
        </mxCell>
        <mxCell id="fR26k21ir-IYqYU8golR-19" value="selesai" style="text;html=1;align=center;verticalAlign=middle;whiteSpace=wrap;rounded=0;" parent="1" vertex="1">
          <mxGeometry x="370" y="625" width="60" height="30" as="geometry" />
        </mxCell>
        <mxCell id="r1bz6jaTydQUi2TKYvOO-1" value="" style="rhombus;whiteSpace=wrap;html=1;" vertex="1" parent="1">
          <mxGeometry x="335" y="240" width="130" height="130" as="geometry" />
        </mxCell>
        <mxCell id="r1bz6jaTydQUi2TKYvOO-2" value="? score &amp;gt;= 70" style="text;html=1;align=center;verticalAlign=middle;whiteSpace=wrap;rounded=0;" vertex="1" parent="1">
          <mxGeometry x="357.5" y="290" width="85" height="30" as="geometry" />
        </mxCell>
        <mxCell id="r1bz6jaTydQUi2TKYvOO-5" value="" style="endArrow=classic;html=1;rounded=0;exitX=1;exitY=0.5;exitDx=0;exitDy=0;entryX=0;entryY=0.5;entryDx=0;entryDy=0;" edge="1" parent="1" source="r1bz6jaTydQUi2TKYvOO-1" target="r1bz6jaTydQUi2TKYvOO-6">
          <mxGeometry width="50" height="50" relative="1" as="geometry">
            <mxPoint x="380" y="300" as="sourcePoint" />
            <mxPoint x="520" y="305" as="targetPoint" />
          </mxGeometry>
        </mxCell>
        <mxCell id="r1bz6jaTydQUi2TKYvOO-6" value="" style="shape=parallelogram;perimeter=parallelogramPerimeter;whiteSpace=wrap;html=1;fixedSize=1;" vertex="1" parent="1">
          <mxGeometry x="550" y="275" width="120" height="60" as="geometry" />
        </mxCell>
        <mxCell id="r1bz6jaTydQUi2TKYvOO-7" value="Yes" style="text;html=1;align=center;verticalAlign=middle;whiteSpace=wrap;rounded=0;" vertex="1" parent="1">
          <mxGeometry x="480" y="275" width="60" height="30" as="geometry" />
        </mxCell>
        <mxCell id="r1bz6jaTydQUi2TKYvOO-10" value="Pass" style="text;html=1;align=center;verticalAlign=middle;whiteSpace=wrap;rounded=0;" vertex="1" parent="1">
          <mxGeometry x="580" y="290" width="60" height="30" as="geometry" />
        </mxCell>
        <mxCell id="r1bz6jaTydQUi2TKYvOO-11" value="Fail" style="text;html=1;align=center;verticalAlign=middle;whiteSpace=wrap;rounded=0;" vertex="1" parent="1">
          <mxGeometry x="370" y="465" width="60" height="30" as="geometry" />
        </mxCell>
        <mxCell id="r1bz6jaTydQUi2TKYvOO-12" value="" style="endArrow=classic;html=1;rounded=0;exitX=1;exitY=0.5;exitDx=0;exitDy=0;" edge="1" parent="1" source="r1bz6jaTydQUi2TKYvOO-6">
          <mxGeometry width="50" height="50" relative="1" as="geometry">
            <mxPoint x="380" y="480" as="sourcePoint" />
            <mxPoint x="400" y="580" as="targetPoint" />
            <Array as="points">
              <mxPoint x="720" y="305" />
              <mxPoint x="720" y="580" />
            </Array>
          </mxGeometry>
        </mxCell>
      </root>
    </mxGraphModel>
  </diagram>
</mxfile>
